<mxfile host="app.diagrams.net" modified="2023-11-26T13:45:41.696Z" agent="Mozilla/5.0 (Windows NT 10.0; Win64; x64) AppleWebKit/537.36 (KHTML, like Gecko) Chrome/119.0.0.0 Safari/537.36" etag="P-zLTIViUlnGdr9cX_hj" version="22.1.4" type="github">
  <diagram name="Page-1" id="taecw9C5bGbbCVP_hGBg">
    <mxGraphModel dx="1762" dy="877" grid="1" gridSize="10" guides="1" tooltips="1" connect="1" arrows="1" fold="1" page="1" pageScale="1" pageWidth="827" pageHeight="1169" math="0" shadow="0">
      <root>
        <mxCell id="0" />
        <mxCell id="1" parent="0" />
        <mxCell id="JHMLERF2ndYPwHmZeLBS-14" style="edgeStyle=orthogonalEdgeStyle;rounded=0;orthogonalLoop=1;jettySize=auto;html=1;exitX=0.5;exitY=0;exitDx=0;exitDy=0;entryX=0.5;entryY=1;entryDx=0;entryDy=0;" edge="1" parent="1" source="JHMLERF2ndYPwHmZeLBS-1" target="JHMLERF2ndYPwHmZeLBS-7">
          <mxGeometry relative="1" as="geometry" />
        </mxCell>
        <mxCell id="JHMLERF2ndYPwHmZeLBS-16" style="edgeStyle=orthogonalEdgeStyle;rounded=0;orthogonalLoop=1;jettySize=auto;html=1;exitX=1;exitY=0;exitDx=0;exitDy=0;entryX=0.5;entryY=1;entryDx=0;entryDy=0;" edge="1" parent="1" source="JHMLERF2ndYPwHmZeLBS-1" target="JHMLERF2ndYPwHmZeLBS-9">
          <mxGeometry relative="1" as="geometry">
            <Array as="points">
              <mxPoint x="1461" y="545" />
            </Array>
          </mxGeometry>
        </mxCell>
        <mxCell id="JHMLERF2ndYPwHmZeLBS-17" style="edgeStyle=orthogonalEdgeStyle;rounded=0;orthogonalLoop=1;jettySize=auto;html=1;exitX=1;exitY=1;exitDx=0;exitDy=0;entryX=0.5;entryY=0;entryDx=0;entryDy=0;" edge="1" parent="1" source="JHMLERF2ndYPwHmZeLBS-1" target="JHMLERF2ndYPwHmZeLBS-12">
          <mxGeometry relative="1" as="geometry">
            <Array as="points">
              <mxPoint x="1461" y="625" />
            </Array>
          </mxGeometry>
        </mxCell>
        <mxCell id="JHMLERF2ndYPwHmZeLBS-18" style="edgeStyle=orthogonalEdgeStyle;rounded=0;orthogonalLoop=1;jettySize=auto;html=1;exitX=0;exitY=0;exitDx=0;exitDy=0;entryX=0.5;entryY=1;entryDx=0;entryDy=0;" edge="1" parent="1" source="JHMLERF2ndYPwHmZeLBS-1" target="JHMLERF2ndYPwHmZeLBS-4">
          <mxGeometry relative="1" as="geometry">
            <Array as="points">
              <mxPoint x="1021" y="545" />
            </Array>
          </mxGeometry>
        </mxCell>
        <mxCell id="JHMLERF2ndYPwHmZeLBS-19" style="edgeStyle=orthogonalEdgeStyle;rounded=0;orthogonalLoop=1;jettySize=auto;html=1;exitX=0;exitY=1;exitDx=0;exitDy=0;entryX=0.5;entryY=0;entryDx=0;entryDy=0;" edge="1" parent="1" source="JHMLERF2ndYPwHmZeLBS-1" target="JHMLERF2ndYPwHmZeLBS-10">
          <mxGeometry relative="1" as="geometry">
            <Array as="points">
              <mxPoint x="1021" y="625" />
            </Array>
          </mxGeometry>
        </mxCell>
        <mxCell id="JHMLERF2ndYPwHmZeLBS-20" style="edgeStyle=orthogonalEdgeStyle;rounded=0;orthogonalLoop=1;jettySize=auto;html=1;exitX=0.5;exitY=1;exitDx=0;exitDy=0;entryX=0.5;entryY=0;entryDx=0;entryDy=0;" edge="1" parent="1" source="JHMLERF2ndYPwHmZeLBS-1" target="JHMLERF2ndYPwHmZeLBS-11">
          <mxGeometry relative="1" as="geometry" />
        </mxCell>
        <mxCell id="JHMLERF2ndYPwHmZeLBS-1" value="" style="swimlane;startSize=0;fillColor=#FFF2CC;" vertex="1" parent="1">
          <mxGeometry x="1096" y="545" width="290" height="80" as="geometry" />
        </mxCell>
        <mxCell id="JHMLERF2ndYPwHmZeLBS-3" value="&lt;font style=&quot;font-size: 18px;&quot;&gt;&lt;b&gt;Conception et développement &lt;br&gt;de l&#39;application&lt;/b&gt;&lt;/font&gt;" style="text;html=1;align=center;verticalAlign=middle;resizable=0;points=[];autosize=1;strokeColor=none;fillColor=none;" vertex="1" parent="JHMLERF2ndYPwHmZeLBS-1">
          <mxGeometry x="5" y="10" width="280" height="60" as="geometry" />
        </mxCell>
        <mxCell id="JHMLERF2ndYPwHmZeLBS-35" style="edgeStyle=orthogonalEdgeStyle;rounded=0;orthogonalLoop=1;jettySize=auto;html=1;exitX=0;exitY=0.5;exitDx=0;exitDy=0;entryX=1;entryY=0.5;entryDx=0;entryDy=0;" edge="1" parent="1" target="JHMLERF2ndYPwHmZeLBS-31">
          <mxGeometry relative="1" as="geometry">
            <mxPoint x="926.0000000000005" y="485" as="sourcePoint" />
            <Array as="points">
              <mxPoint x="926" y="570" />
            </Array>
          </mxGeometry>
        </mxCell>
        <mxCell id="JHMLERF2ndYPwHmZeLBS-40" style="edgeStyle=orthogonalEdgeStyle;rounded=0;orthogonalLoop=1;jettySize=auto;html=1;exitX=0;exitY=0.5;exitDx=0;exitDy=0;" edge="1" parent="1" source="JHMLERF2ndYPwHmZeLBS-4" target="JHMLERF2ndYPwHmZeLBS-27">
          <mxGeometry relative="1" as="geometry" />
        </mxCell>
        <mxCell id="JHMLERF2ndYPwHmZeLBS-4" value="&lt;font style=&quot;font-size: 18px;&quot;&gt;Besoins&lt;/font&gt;" style="ellipse;whiteSpace=wrap;html=1;" vertex="1" parent="1">
          <mxGeometry x="946" y="460" width="150" height="50" as="geometry" />
        </mxCell>
        <mxCell id="JHMLERF2ndYPwHmZeLBS-44" style="edgeStyle=orthogonalEdgeStyle;rounded=0;orthogonalLoop=1;jettySize=auto;html=1;exitX=0.5;exitY=0;exitDx=0;exitDy=0;entryX=0.5;entryY=1;entryDx=0;entryDy=0;" edge="1" parent="1" source="JHMLERF2ndYPwHmZeLBS-7" target="JHMLERF2ndYPwHmZeLBS-42">
          <mxGeometry relative="1" as="geometry" />
        </mxCell>
        <mxCell id="JHMLERF2ndYPwHmZeLBS-45" style="edgeStyle=orthogonalEdgeStyle;rounded=0;orthogonalLoop=1;jettySize=auto;html=1;exitX=0.5;exitY=0;exitDx=0;exitDy=0;entryX=0.5;entryY=1;entryDx=0;entryDy=0;" edge="1" parent="1" source="JHMLERF2ndYPwHmZeLBS-7" target="JHMLERF2ndYPwHmZeLBS-43">
          <mxGeometry relative="1" as="geometry" />
        </mxCell>
        <mxCell id="JHMLERF2ndYPwHmZeLBS-7" value="&lt;font style=&quot;font-size: 18px;&quot;&gt;Fonctionnalités&lt;/font&gt;" style="ellipse;whiteSpace=wrap;html=1;" vertex="1" parent="1">
          <mxGeometry x="1166" y="410" width="150" height="50" as="geometry" />
        </mxCell>
        <mxCell id="JHMLERF2ndYPwHmZeLBS-85" style="edgeStyle=orthogonalEdgeStyle;rounded=0;orthogonalLoop=1;jettySize=auto;html=1;exitX=1;exitY=0.5;exitDx=0;exitDy=0;" edge="1" parent="1" source="JHMLERF2ndYPwHmZeLBS-9" target="JHMLERF2ndYPwHmZeLBS-74">
          <mxGeometry relative="1" as="geometry" />
        </mxCell>
        <mxCell id="JHMLERF2ndYPwHmZeLBS-86" style="edgeStyle=orthogonalEdgeStyle;rounded=0;orthogonalLoop=1;jettySize=auto;html=1;exitX=1;exitY=0.5;exitDx=0;exitDy=0;entryX=0;entryY=0.5;entryDx=0;entryDy=0;" edge="1" parent="1" source="JHMLERF2ndYPwHmZeLBS-9" target="JHMLERF2ndYPwHmZeLBS-73">
          <mxGeometry relative="1" as="geometry" />
        </mxCell>
        <mxCell id="JHMLERF2ndYPwHmZeLBS-87" style="edgeStyle=orthogonalEdgeStyle;rounded=0;orthogonalLoop=1;jettySize=auto;html=1;exitX=1;exitY=0.5;exitDx=0;exitDy=0;entryX=0;entryY=0.5;entryDx=0;entryDy=0;" edge="1" parent="1" source="JHMLERF2ndYPwHmZeLBS-9" target="JHMLERF2ndYPwHmZeLBS-75">
          <mxGeometry relative="1" as="geometry" />
        </mxCell>
        <mxCell id="JHMLERF2ndYPwHmZeLBS-9" value="&lt;span style=&quot;font-size: 18px;&quot;&gt;Critère de succès&lt;/span&gt;" style="ellipse;whiteSpace=wrap;html=1;" vertex="1" parent="1">
          <mxGeometry x="1386" y="460" width="150" height="50" as="geometry" />
        </mxCell>
        <mxCell id="JHMLERF2ndYPwHmZeLBS-89" style="edgeStyle=orthogonalEdgeStyle;rounded=0;orthogonalLoop=1;jettySize=auto;html=1;exitX=0;exitY=0.5;exitDx=0;exitDy=0;" edge="1" parent="1" source="JHMLERF2ndYPwHmZeLBS-10" target="JHMLERF2ndYPwHmZeLBS-88">
          <mxGeometry relative="1" as="geometry" />
        </mxCell>
        <mxCell id="JHMLERF2ndYPwHmZeLBS-10" value="&lt;font style=&quot;font-size: 18px;&quot;&gt;Délais&lt;/font&gt;" style="ellipse;whiteSpace=wrap;html=1;" vertex="1" parent="1">
          <mxGeometry x="946" y="660" width="150" height="50" as="geometry" />
        </mxCell>
        <mxCell id="JHMLERF2ndYPwHmZeLBS-94" style="edgeStyle=orthogonalEdgeStyle;rounded=0;orthogonalLoop=1;jettySize=auto;html=1;exitX=0.5;exitY=1;exitDx=0;exitDy=0;entryX=0.5;entryY=0;entryDx=0;entryDy=0;" edge="1" parent="1" source="JHMLERF2ndYPwHmZeLBS-11" target="JHMLERF2ndYPwHmZeLBS-92">
          <mxGeometry relative="1" as="geometry" />
        </mxCell>
        <mxCell id="JHMLERF2ndYPwHmZeLBS-95" style="edgeStyle=orthogonalEdgeStyle;rounded=0;orthogonalLoop=1;jettySize=auto;html=1;exitX=0.5;exitY=1;exitDx=0;exitDy=0;entryX=0.5;entryY=0;entryDx=0;entryDy=0;" edge="1" parent="1" source="JHMLERF2ndYPwHmZeLBS-11" target="JHMLERF2ndYPwHmZeLBS-93">
          <mxGeometry relative="1" as="geometry" />
        </mxCell>
        <mxCell id="JHMLERF2ndYPwHmZeLBS-11" value="&lt;span style=&quot;font-size: 18px;&quot;&gt;Pers. ressources&lt;/span&gt;" style="ellipse;whiteSpace=wrap;html=1;" vertex="1" parent="1">
          <mxGeometry x="1166" y="710" width="150" height="50" as="geometry" />
        </mxCell>
        <mxCell id="JHMLERF2ndYPwHmZeLBS-91" style="edgeStyle=orthogonalEdgeStyle;rounded=0;orthogonalLoop=1;jettySize=auto;html=1;exitX=1;exitY=0.5;exitDx=0;exitDy=0;entryX=0;entryY=0.5;entryDx=0;entryDy=0;" edge="1" parent="1" source="JHMLERF2ndYPwHmZeLBS-12" target="JHMLERF2ndYPwHmZeLBS-90">
          <mxGeometry relative="1" as="geometry" />
        </mxCell>
        <mxCell id="JHMLERF2ndYPwHmZeLBS-12" value="&lt;font style=&quot;font-size: 18px;&quot;&gt;Budget&lt;/font&gt;" style="ellipse;whiteSpace=wrap;html=1;" vertex="1" parent="1">
          <mxGeometry x="1386" y="670" width="150" height="50" as="geometry" />
        </mxCell>
        <mxCell id="JHMLERF2ndYPwHmZeLBS-36" style="edgeStyle=orthogonalEdgeStyle;rounded=0;orthogonalLoop=1;jettySize=auto;html=1;exitX=0;exitY=0.5;exitDx=0;exitDy=0;entryX=1;entryY=0.5;entryDx=0;entryDy=0;" edge="1" parent="1" source="JHMLERF2ndYPwHmZeLBS-26" target="JHMLERF2ndYPwHmZeLBS-30">
          <mxGeometry relative="1" as="geometry" />
        </mxCell>
        <mxCell id="JHMLERF2ndYPwHmZeLBS-26" value="Interface de connexion&lt;span id=&quot;docs-internal-guid-3e4ef8b2-7fff-d972-ab93-ef912944479c&quot;&gt;&lt;/span&gt;" style="rounded=1;whiteSpace=wrap;html=1;" vertex="1" parent="1">
          <mxGeometry x="760" y="380" width="130" height="40" as="geometry" />
        </mxCell>
        <mxCell id="JHMLERF2ndYPwHmZeLBS-37" style="edgeStyle=orthogonalEdgeStyle;rounded=0;orthogonalLoop=1;jettySize=auto;html=1;exitX=0;exitY=0.5;exitDx=0;exitDy=0;" edge="1" parent="1" source="JHMLERF2ndYPwHmZeLBS-27" target="JHMLERF2ndYPwHmZeLBS-29">
          <mxGeometry relative="1" as="geometry" />
        </mxCell>
        <mxCell id="JHMLERF2ndYPwHmZeLBS-27" value="Interface pincipale&lt;span id=&quot;docs-internal-guid-3e4ef8b2-7fff-d972-ab93-ef912944479c&quot;&gt;&lt;/span&gt;" style="rounded=1;whiteSpace=wrap;html=1;" vertex="1" parent="1">
          <mxGeometry x="760" y="465" width="130" height="40" as="geometry" />
        </mxCell>
        <mxCell id="JHMLERF2ndYPwHmZeLBS-29" value="Permettant de collecter les données et obtenir une prédiction de satisfaction&lt;span id=&quot;docs-internal-guid-3e4ef8b2-7fff-d972-ab93-ef912944479c&quot;&gt;&lt;/span&gt;" style="rounded=1;whiteSpace=wrap;html=1;" vertex="1" parent="1">
          <mxGeometry x="610" y="448.75" width="130" height="72.5" as="geometry" />
        </mxCell>
        <mxCell id="JHMLERF2ndYPwHmZeLBS-30" value="Simple et intuitive&lt;span id=&quot;docs-internal-guid-3e4ef8b2-7fff-d972-ab93-ef912944479c&quot;&gt;&lt;/span&gt;" style="rounded=1;whiteSpace=wrap;html=1;" vertex="1" parent="1">
          <mxGeometry x="610" y="380" width="130" height="40" as="geometry" />
        </mxCell>
        <mxCell id="JHMLERF2ndYPwHmZeLBS-38" style="edgeStyle=orthogonalEdgeStyle;rounded=0;orthogonalLoop=1;jettySize=auto;html=1;exitX=0;exitY=0.5;exitDx=0;exitDy=0;" edge="1" parent="1" source="JHMLERF2ndYPwHmZeLBS-31" target="JHMLERF2ndYPwHmZeLBS-32">
          <mxGeometry relative="1" as="geometry" />
        </mxCell>
        <mxCell id="JHMLERF2ndYPwHmZeLBS-31" value="Dashboard" style="rounded=1;whiteSpace=wrap;html=1;" vertex="1" parent="1">
          <mxGeometry x="760" y="550" width="130" height="40" as="geometry" />
        </mxCell>
        <mxCell id="JHMLERF2ndYPwHmZeLBS-32" value="Permettant de visualiser les données" style="rounded=1;whiteSpace=wrap;html=1;" vertex="1" parent="1">
          <mxGeometry x="610" y="550" width="130" height="40" as="geometry" />
        </mxCell>
        <mxCell id="JHMLERF2ndYPwHmZeLBS-34" style="edgeStyle=orthogonalEdgeStyle;rounded=0;orthogonalLoop=1;jettySize=auto;html=1;exitX=0;exitY=0.5;exitDx=0;exitDy=0;entryX=0.996;entryY=0.442;entryDx=0;entryDy=0;entryPerimeter=0;" edge="1" parent="1" target="JHMLERF2ndYPwHmZeLBS-26">
          <mxGeometry relative="1" as="geometry">
            <mxPoint x="926.0000000000005" y="485" as="sourcePoint" />
            <Array as="points">
              <mxPoint x="926" y="398" />
            </Array>
          </mxGeometry>
        </mxCell>
        <mxCell id="JHMLERF2ndYPwHmZeLBS-65" style="edgeStyle=orthogonalEdgeStyle;rounded=0;orthogonalLoop=1;jettySize=auto;html=1;exitX=0.5;exitY=0;exitDx=0;exitDy=0;entryX=0.5;entryY=1;entryDx=0;entryDy=0;" edge="1" parent="1" source="JHMLERF2ndYPwHmZeLBS-42" target="JHMLERF2ndYPwHmZeLBS-47">
          <mxGeometry relative="1" as="geometry" />
        </mxCell>
        <mxCell id="JHMLERF2ndYPwHmZeLBS-42" value="Interface de connexion" style="rounded=1;whiteSpace=wrap;html=1;" vertex="1" parent="1">
          <mxGeometry x="1070" y="320" width="130" height="40" as="geometry" />
        </mxCell>
        <mxCell id="JHMLERF2ndYPwHmZeLBS-67" style="edgeStyle=orthogonalEdgeStyle;rounded=0;orthogonalLoop=1;jettySize=auto;html=1;exitX=0.5;exitY=0;exitDx=0;exitDy=0;entryX=0.5;entryY=1;entryDx=0;entryDy=0;" edge="1" parent="1" source="JHMLERF2ndYPwHmZeLBS-43" target="JHMLERF2ndYPwHmZeLBS-62">
          <mxGeometry relative="1" as="geometry" />
        </mxCell>
        <mxCell id="JHMLERF2ndYPwHmZeLBS-70" style="edgeStyle=orthogonalEdgeStyle;rounded=0;orthogonalLoop=1;jettySize=auto;html=1;exitX=1;exitY=0.5;exitDx=0;exitDy=0;entryX=0.5;entryY=1;entryDx=0;entryDy=0;" edge="1" parent="1" source="JHMLERF2ndYPwHmZeLBS-43" target="JHMLERF2ndYPwHmZeLBS-69">
          <mxGeometry relative="1" as="geometry" />
        </mxCell>
        <mxCell id="JHMLERF2ndYPwHmZeLBS-43" value="interface principale" style="rounded=1;whiteSpace=wrap;html=1;" vertex="1" parent="1">
          <mxGeometry x="1280" y="320" width="130" height="40" as="geometry" />
        </mxCell>
        <mxCell id="JHMLERF2ndYPwHmZeLBS-66" style="edgeStyle=orthogonalEdgeStyle;rounded=0;orthogonalLoop=1;jettySize=auto;html=1;exitX=0.5;exitY=0;exitDx=0;exitDy=0;" edge="1" parent="1" source="JHMLERF2ndYPwHmZeLBS-47" target="JHMLERF2ndYPwHmZeLBS-51">
          <mxGeometry relative="1" as="geometry" />
        </mxCell>
        <mxCell id="JHMLERF2ndYPwHmZeLBS-47" value="Formulaire de connexion" style="rounded=1;whiteSpace=wrap;html=1;" vertex="1" parent="1">
          <mxGeometry x="1070" y="240" width="130" height="40" as="geometry" />
        </mxCell>
        <mxCell id="JHMLERF2ndYPwHmZeLBS-51" value="Redirection vers l&#39;interface principale" style="rounded=1;whiteSpace=wrap;html=1;" vertex="1" parent="1">
          <mxGeometry x="1070" y="160" width="130" height="40" as="geometry" />
        </mxCell>
        <mxCell id="JHMLERF2ndYPwHmZeLBS-68" style="edgeStyle=orthogonalEdgeStyle;rounded=0;orthogonalLoop=1;jettySize=auto;html=1;exitX=0.5;exitY=0;exitDx=0;exitDy=0;entryX=0.5;entryY=1;entryDx=0;entryDy=0;" edge="1" parent="1" source="JHMLERF2ndYPwHmZeLBS-62" target="JHMLERF2ndYPwHmZeLBS-63">
          <mxGeometry relative="1" as="geometry" />
        </mxCell>
        <mxCell id="JHMLERF2ndYPwHmZeLBS-62" value="Formulaire utilisateur" style="rounded=1;whiteSpace=wrap;html=1;" vertex="1" parent="1">
          <mxGeometry x="1280" y="240" width="130" height="40" as="geometry" />
        </mxCell>
        <mxCell id="JHMLERF2ndYPwHmZeLBS-63" value="Prédiction" style="rounded=1;whiteSpace=wrap;html=1;" vertex="1" parent="1">
          <mxGeometry x="1280" y="160" width="130" height="40" as="geometry" />
        </mxCell>
        <mxCell id="JHMLERF2ndYPwHmZeLBS-69" value="Dashboard" style="rounded=1;whiteSpace=wrap;html=1;" vertex="1" parent="1">
          <mxGeometry x="1450" y="240" width="130" height="40" as="geometry" />
        </mxCell>
        <mxCell id="JHMLERF2ndYPwHmZeLBS-73" value="Interface est facile à utiliser et ergonomique&lt;span id=&quot;docs-internal-guid-3e4ef8b2-7fff-d972-ab93-ef912944479c&quot;&gt;&lt;/span&gt;" style="rounded=1;whiteSpace=wrap;html=1;" vertex="1" parent="1">
          <mxGeometry x="1590" y="380" width="130" height="40" as="geometry" />
        </mxCell>
        <mxCell id="JHMLERF2ndYPwHmZeLBS-74" value="L&#39;interface permet de collecter les données et d&#39;obtenir une prédiction de satisfaction&lt;span id=&quot;docs-internal-guid-3e4ef8b2-7fff-d972-ab93-ef912944479c&quot;&gt;&lt;/span&gt;" style="rounded=1;whiteSpace=wrap;html=1;" vertex="1" parent="1">
          <mxGeometry x="1590" y="446.25" width="130" height="77.5" as="geometry" />
        </mxCell>
        <mxCell id="JHMLERF2ndYPwHmZeLBS-75" value="Dashboard permet de visualiser les données de manière claire et concise" style="rounded=1;whiteSpace=wrap;html=1;" vertex="1" parent="1">
          <mxGeometry x="1590" y="550" width="130" height="70" as="geometry" />
        </mxCell>
        <mxCell id="JHMLERF2ndYPwHmZeLBS-88" value="2 jours et demi" style="rounded=1;whiteSpace=wrap;html=1;" vertex="1" parent="1">
          <mxGeometry x="760" y="665" width="130" height="40" as="geometry" />
        </mxCell>
        <mxCell id="JHMLERF2ndYPwHmZeLBS-90" value="0 euros&lt;span id=&quot;docs-internal-guid-af674c42-7fff-b679-99c2-cb406470c928&quot;&gt;&lt;/span&gt;" style="rounded=1;whiteSpace=wrap;html=1;" vertex="1" parent="1">
          <mxGeometry x="1580" y="675" width="130" height="40" as="geometry" />
        </mxCell>
        <mxCell id="JHMLERF2ndYPwHmZeLBS-92" value="Développeur" style="rounded=1;whiteSpace=wrap;html=1;" vertex="1" parent="1">
          <mxGeometry x="1091.5" y="800" width="130" height="40" as="geometry" />
        </mxCell>
        <mxCell id="JHMLERF2ndYPwHmZeLBS-93" value="Un&amp;nbsp;data scientist" style="rounded=1;whiteSpace=wrap;html=1;" vertex="1" parent="1">
          <mxGeometry x="1260.5" y="800" width="130" height="40" as="geometry" />
        </mxCell>
      </root>
    </mxGraphModel>
  </diagram>
</mxfile>
